<?xml version="1.0" encoding="UTF-8"?>
<svg id="Layer_1" data-name="Layer 1" xmlns="http://www.w3.org/2000/svg" viewBox="0 0 600 220">
  <defs>
    <style>
      .cls-1 {
        fill: #1F3D34;
      }

      .cls-2 {
        fill: none;
      }
    </style>
  </defs>
  <rect class="cls-2" width="600" height="220"/>
  <g>
    <g>
      <path class="cls-1" d="M91.09,60.16c2.81,1.13,5.57,2.71,8.29,4.76.79.6,1.45.89,1.98.89.66,0,1.19-.48,1.59-1.44.4-.96.7-2.46.89-4.52h2.28c-.27,4.5-.4,12.51-.4,24.02h-2.28c-.53-4.5-1.31-8.14-2.33-10.92-1.03-2.78-2.73-5.13-5.11-7.05-1.59-1.52-3.54-2.71-5.86-3.57-2.32-.86-4.7-1.29-7.15-1.29-4.63,0-8.49,1.57-11.56,4.71-3.08,3.14-5.34,7.29-6.8,12.46-1.46,5.16-2.18,10.82-2.18,16.97,0,22.89,6.35,34.34,19.05,34.34,2.91,0,5.26-.66,7.05-1.99.86-.6,1.47-1.29,1.84-2.08.36-.79.55-1.82.55-3.08v-9.73c0-3.11-.27-5.37-.79-6.8-.53-1.42-1.47-2.4-2.83-2.93-1.36-.53-3.49-.86-6.4-.99v-1.99c4.1.2,9.76.3,16.97.3,5.89,0,10.32-.1,13.3-.3v1.99c-1.32.13-2.28.4-2.88.79-.6.4-1.01,1.16-1.24,2.28-.23,1.13-.35,2.95-.35,5.46v19.65h-1.98c-.07-1.39-.35-2.68-.84-3.87-.5-1.19-1.18-1.79-2.03-1.79-1.13,0-2.91.69-5.36,2.08-5.76,3.31-11.18,4.96-16.28,4.96-11.45,0-20.21-3.13-26.3-9.38-6.09-6.25-9.13-15.04-9.13-26.35,0-7.41,1.54-13.93,4.62-19.55,3.08-5.62,7.33-9.99,12.75-13.1,5.42-3.11,11.61-4.67,18.56-4.67,4.1,0,7.56.56,10.37,1.69Z"/>
      <path class="cls-1" d="M157.33,83.93c4.3,4.33,6.45,11.2,6.45,20.6s-2.15,16.24-6.45,20.54c-4.3,4.3-10.26,6.45-17.87,6.45s-13.48-2.15-17.81-6.45c-4.33-4.3-6.5-11.15-6.5-20.54s2.17-16.26,6.5-20.6,10.27-6.5,17.81-6.5,13.56,2.17,17.87,6.5ZM132.67,85.62c-1.69,4.14-2.53,10.44-2.53,18.91s.84,14.75,2.53,18.86c1.69,4.1,3.95,6.15,6.8,6.15s5.19-2.03,6.85-6.1c1.65-4.07,2.48-10.37,2.48-18.91s-.84-14.85-2.53-18.96c-1.69-4.1-3.95-6.15-6.8-6.15s-5.11,2.07-6.8,6.2Z"/>
      <path class="cls-1" d="M187.21,120.9c0,2.71.46,4.58,1.39,5.61.93,1.03,2.58,1.54,4.96,1.54v2.08c-6.88-.26-11.31-.4-13.3-.4-2.25,0-6.82.13-13.7.4v-2.08c2.32,0,3.95-.51,4.91-1.54.96-1.03,1.44-2.89,1.44-5.61v-56.57c0-3.04-.48-5.26-1.44-6.65s-2.6-2.08-4.91-2.08v-2.08c2.12.2,4.17.3,6.15.3,5.76,0,10.58-.46,14.49-1.39v68.48Z"/>
      <path class="cls-1" d="M232.66,55.8c.99.79,1.8,1.84,2.43,3.13s.94,2.73.94,4.32c0,1.85-.66,3.46-1.98,4.81-1.32,1.36-3.01,2.03-5.06,2.03-2.25,0-4.07-.63-5.46-1.89-1.39-1.26-2.08-2.98-2.08-5.16,0-1.72.5-3.24,1.49-4.57.99-1.32,2.45-2.25,4.37-2.78-.2-.4-.61-.73-1.24-.99-.63-.26-1.41-.4-2.33-.4-2.52,0-4.3.86-5.36,2.58-.73.99-1.23,2.45-1.49,4.37-.27,1.92-.4,4.8-.4,8.64v9.03h10.62v1.99h-10.62v39c0,3.04.78,5.16,2.33,6.35,1.55,1.19,3.89,1.79,7,1.79v2.08l-2.78-.1c-7.34-.2-12.11-.3-14.29-.3-1.99,0-6.29.13-12.9.4v-2.08c2.38,0,4.04-.51,4.96-1.54.93-1.03,1.39-2.89,1.39-5.61v-40h-6.75v-1.99h6.75c0-5.76.46-10.21,1.39-13.35.93-3.14,2.55-5.84,4.86-8.09,1.46-1.45,3.41-2.64,5.86-3.57,2.45-.93,5.03-1.39,7.74-1.39,4.1,0,7.64,1.09,10.62,3.27Z"/>
      <path class="cls-1" d="M318.81,62.65c-.99.4-1.67,1.16-2.04,2.28-.36,1.13-.55,2.95-.55,5.46v49.23c0,2.52.18,4.33.55,5.46.36,1.13,1.04,1.89,2.04,2.28.99.4,2.61.66,4.86.79v1.98c-3.24-.2-8.27-.3-15.09-.3s-11.88.1-15.58.3v-1.98c2.18-.13,3.79-.4,4.81-.79,1.03-.4,1.72-1.16,2.08-2.28.36-1.12.55-2.94.55-5.46v-23.82h-26.3v23.82c0,2.52.18,4.33.55,5.46.36,1.13,1.04,1.89,2.03,2.28.99.4,2.61.66,4.86.79v1.98c-3.57-.2-8.57-.3-14.99-.3-7.08,0-12.31.1-15.68.3v-1.98c2.18-.13,3.79-.4,4.81-.79,1.03-.4,1.72-1.16,2.08-2.28.36-1.12.55-2.94.55-5.46v-49.23c0-2.51-.18-4.33-.55-5.46-.36-1.12-1.06-1.89-2.08-2.28-1.03-.4-2.63-.66-4.81-.79v-1.99c3.37.2,8.6.3,15.68.3,6.42,0,11.41-.1,14.99-.3v1.99c-2.25.13-3.87.4-4.86.79-.99.4-1.67,1.16-2.03,2.28-.36,1.13-.55,2.95-.55,5.46v23.42h26.3v-23.42c0-2.51-.18-4.33-.55-5.46-.36-1.12-1.06-1.89-2.08-2.28-1.03-.4-2.63-.66-4.81-.79v-1.99c3.7.2,8.9.3,15.58.3s11.84-.1,15.09-.3v1.99c-2.25.13-3.87.4-4.86.79Z"/>
      <path class="cls-1" d="M368.93,83.93c4.3,4.33,6.45,11.2,6.45,20.6s-2.15,16.24-6.45,20.54c-4.3,4.3-10.26,6.45-17.86,6.45s-13.48-2.15-17.81-6.45c-4.33-4.3-6.5-11.15-6.5-20.54s2.17-16.26,6.5-20.6c4.33-4.33,10.27-6.5,17.81-6.5s13.56,2.17,17.86,6.5ZM344.26,85.62c-1.69,4.14-2.53,10.44-2.53,18.91s.84,14.75,2.53,18.86c1.69,4.1,3.95,6.15,6.8,6.15s5.19-2.03,6.85-6.1c1.65-4.07,2.48-10.37,2.48-18.91s-.84-14.85-2.53-18.96c-1.69-4.1-3.95-6.15-6.8-6.15s-5.11,2.07-6.8,6.2Z"/>
      <path class="cls-1" d="M460.78,126.51c.96,1.03,2.6,1.54,4.91,1.54v2.08c-6.62-.26-10.98-.4-13.1-.4-1.85,0-5.95.13-12.31.4v-2.08c1.79,0,3.03-.5,3.72-1.49.69-.99,1.04-2.88,1.04-5.66v-30.87c0-2.78-.41-4.85-1.24-6.2-.83-1.36-2.4-2.03-4.71-2.03-2.45,0-4.58,1.03-6.4,3.08-1.82,2.05-2.89,4.57-3.22,7.54v28.48c0,2.71.41,4.58,1.24,5.61.83,1.03,2.33,1.54,4.52,1.54v2.08c-6.35-.26-10.52-.4-12.51-.4-1.85,0-5.95.13-12.31.4v-2.08c1.79,0,3.03-.51,3.72-1.54.7-1.03,1.04-2.89,1.04-5.61v-30.87c0-2.78-.36-4.85-1.09-6.2-.73-1.36-2.15-2.03-4.27-2.03-2.65,0-4.91,1.11-6.8,3.32-1.89,2.22-2.83,4.95-2.83,8.19v27.59c0,2.71.35,4.58,1.04,5.61.69,1.03,1.93,1.54,3.72,1.54v2.08c-5.82-.26-9.73-.4-11.71-.4s-6.55.13-13.7.4v-2.08c2.38,0,4.04-.51,4.96-1.54.93-1.03,1.39-2.89,1.39-5.61v-31.26c0-3.04-.46-5.26-1.39-6.65-.93-1.39-2.58-2.08-4.96-2.08v-2.08c2.12.2,4.17.3,6.15.3,5.89,0,10.72-.46,14.49-1.39v8.93c2.91-6.15,8.04-9.23,15.38-9.23,5.03,0,8.67,1.29,10.92,3.87,1.26,1.32,2.09,3.31,2.48,5.95,1.72-3.57,3.97-6.1,6.75-7.59,2.78-1.49,6.02-2.23,9.73-2.23,5.03,0,8.67,1.29,10.92,3.87,1.06,1.19,1.82,2.81,2.28,4.86.46,2.05.7,4.73.7,8.04v26.7c0,2.71.48,4.58,1.44,5.61Z"/>
      <path class="cls-1" d="M509.66,115.45l1.79.6c-1.33,4.3-3.69,7.96-7.1,10.97-3.41,3.01-7.66,4.52-12.75,4.52-7.01,0-12.59-2.23-16.72-6.7-4.14-4.47-6.2-11.07-6.2-19.8s2.22-15.76,6.65-20.49c4.43-4.73,10.32-7.1,17.67-7.1,12.44,0,18.66,7.34,18.66,22.03h-27.89c-.07.99-.1,2.55-.1,4.67,0,4.37.61,8.01,1.84,10.92,1.22,2.91,2.81,5.03,4.76,6.35,1.95,1.32,4.05,1.99,6.3,1.99,5.43,0,9.79-2.65,13.1-7.94ZM486.49,83.93c-1.56,2.95-2.53,7.49-2.93,13.65h15.58c.13-5.23-.38-9.54-1.54-12.95-1.16-3.41-2.9-5.11-5.21-5.11s-4.35,1.47-5.91,4.42Z"/>
      <path class="cls-1" d="M542.01,78.38c2.12.63,3.74,1.34,4.86,2.13.66.46,1.26.7,1.79.7.6,0,1.11-.31,1.54-.94s.71-1.54.84-2.73h2.09c-.27,3.37-.4,9.2-.4,17.47h-2.09c-.6-4.37-1.9-8.02-3.92-10.97-2.02-2.94-4.95-4.42-8.78-4.42-1.98,0-3.62.56-4.91,1.69-1.29,1.13-1.93,2.68-1.93,4.67,0,2.25.76,4.19,2.28,5.81,1.52,1.62,3.9,3.59,7.14,5.91l2.88,2.08c4.04,3.04,7.01,5.76,8.93,8.14,1.92,2.38,2.88,5.36,2.88,8.93,0,2.91-.84,5.49-2.53,7.74-1.69,2.25-3.95,3.97-6.8,5.16-2.85,1.19-5.99,1.79-9.43,1.79-3.64,0-6.75-.69-9.33-2.08-2.12-1.06-3.64-1.75-4.57-2.08-.66-.2-1.24.02-1.74.64-.5.63-.88,1.57-1.14,2.83h-2.08c.26-3.77.4-10.39.4-19.85h2.09c1.32,12.17,5.79,18.26,13.4,18.26,1.92,0,3.56-.58,4.91-1.74,1.35-1.16,2.03-2.93,2.03-5.31,0-1.85-.42-3.51-1.24-4.96-.83-1.45-1.87-2.74-3.13-3.87-1.26-1.12-3.14-2.68-5.66-4.67-2.98-2.38-5.25-4.3-6.8-5.76-1.56-1.46-2.88-3.18-3.97-5.16-1.09-1.98-1.64-4.2-1.64-6.65,0-4.23,1.65-7.58,4.96-10.02,3.31-2.45,7.34-3.67,12.11-3.67,2.51,0,4.83.31,6.95.94Z"/>
    </g>
    <g>
      <path class="cls-1" d="M137.72,146.64v20.66h-2.5v-20.66h2.5Z"/>
      <path class="cls-1" d="M168.2,146.64v20.66h-2.42l-11.26-16.22h-.2v16.22h-2.5v-20.66h2.42l11.3,16.26h.2v-16.26h2.46Z"/>
      <path class="cls-1" d="M181.16,148.86v-2.22h15.49v2.22h-6.5v18.44h-2.5v-18.44h-6.5Z"/>
      <path class="cls-1" d="M209.61,167.29v-20.66h12.47v2.22h-9.97v6.98h9.32v2.22h-9.32v7.02h10.13v2.22h-12.63Z"/>
      <path class="cls-1" d="M235.69,167.29v-20.66h6.98c1.61,0,2.94.27,3.97.82s1.8,1.3,2.3,2.25c.5.95.75,2.04.75,3.26s-.25,2.3-.75,3.24c-.5.94-1.26,1.68-2.29,2.21-1.03.53-2.34.8-3.94.8h-5.65v-2.26h5.57c1.1,0,1.99-.16,2.67-.48.68-.32,1.17-.78,1.47-1.38s.46-1.31.46-2.13-.15-1.55-.46-2.17c-.31-.62-.8-1.1-1.48-1.44s-1.58-.51-2.69-.51h-4.4v18.44h-2.5ZM245.41,158.02l5.08,9.28h-2.9l-5-9.28h2.82Z"/>
      <path class="cls-1" d="M279.31,146.64v20.66h-2.42l-11.26-16.22h-.2v16.22h-2.5v-20.66h2.42l11.3,16.26h.2v-16.26h2.46Z"/>
      <path class="cls-1" d="M294.25,167.29h-2.62l7.58-20.66h2.58l7.58,20.66h-2.62l-6.17-17.39h-.16l-6.17,17.39ZM295.22,159.22h10.57v2.22h-10.57v-2.22Z"/>
      <path class="cls-1" d="M318.15,148.86v-2.22h15.49v2.22h-6.5v18.44h-2.5v-18.44h-6.5Z"/>
      <path class="cls-1" d="M349.1,146.64v20.66h-2.5v-20.66h2.5Z"/>
      <path class="cls-1" d="M380.62,156.97c0,2.18-.39,4.06-1.18,5.65s-1.87,2.81-3.24,3.67c-1.37.86-2.94,1.29-4.7,1.29s-3.33-.43-4.7-1.29c-1.37-.86-2.45-2.08-3.24-3.67s-1.18-3.47-1.18-5.65.39-4.06,1.18-5.65,1.87-2.81,3.24-3.67c1.37-.86,2.94-1.29,4.7-1.29s3.33.43,4.7,1.29c1.37.86,2.45,2.08,3.24,3.67s1.18,3.47,1.18,5.65ZM378.2,156.97c0-1.79-.3-3.3-.89-4.53-.6-1.23-1.4-2.16-2.41-2.79-1.01-.63-2.14-.95-3.39-.95s-2.38.32-3.39.95c-1.01.63-1.81,1.56-2.41,2.79-.6,1.23-.89,2.74-.89,4.53s.3,3.3.89,4.53,1.4,2.16,2.41,2.79c1.01.63,2.14.95,3.39.95s2.38-.32,3.39-.95c1.01-.63,1.82-1.56,2.41-2.79s.89-2.74.89-4.53Z"/>
      <path class="cls-1" d="M410.29,146.64v20.66h-2.42l-11.26-16.22h-.2v16.22h-2.5v-20.66h2.42l11.3,16.26h.2v-16.26h2.46Z"/>
      <path class="cls-1" d="M425.23,167.29h-2.62l7.59-20.66h2.58l7.59,20.66h-2.62l-6.17-17.39h-.16l-6.17,17.39ZM426.2,159.22h10.57v2.22h-10.57v-2.22Z"/>
      <path class="cls-1" d="M452.67,167.29v-20.66h2.5v18.44h9.6v2.22h-12.1Z"/>
    </g>
    <rect class="cls-1" x="44.79" y="155.98" width="76.67" height="2.3"/>
    <rect class="cls-1" x="478.55" y="155.98" width="76.67" height="2.3"/>
  </g>
</svg>