<?xml version="1.0" encoding="UTF-8"?>
<svg id="Layer_1" data-name="Layer 1" xmlns="http://www.w3.org/2000/svg" viewBox="0 0 512 512">
  <defs>
    <style>
      .cls-1 {
        fill: #1d4a35;
      }
    </style>
  </defs>
  <path class="cls-1" d="M317.5,92.46c13.2,5.29,26.16,12.74,38.91,22.36,3.73,2.8,6.83,4.2,9.32,4.2,3.1,0,5.59-2.25,7.45-6.76,1.87-4.5,3.26-11.57,4.2-21.2h10.71c-1.24,21.13-1.86,58.71-1.86,112.76h-10.72c-2.49-21.12-6.14-38.21-10.95-51.25-4.82-13.05-12.81-24.07-24-33.08-7.45-7.14-16.62-12.73-27.49-16.77-10.88-4.03-22.06-6.06-33.55-6.06-21.75,0-39.83,7.38-54.28,22.13-14.45,14.76-25.09,34.25-31.92,58.47-6.84,24.23-10.25,50.79-10.25,79.67,0,107.48,29.82,161.21,89.45,161.21,13.67,0,24.69-3.1,33.08-9.32,4.03-2.79,6.91-6.06,8.62-9.79,1.7-3.73,2.56-8.54,2.56-14.44v-45.66c0-14.59-1.24-25.23-3.73-31.92-2.49-6.67-6.91-11.25-13.28-13.74-6.37-2.48-16.39-4.03-30.05-4.66v-9.32c19.25.93,45.82,1.4,79.67,1.4,27.64,0,48.46-.46,62.43-1.4v9.32c-6.22.63-10.71,1.86-13.51,3.73-2.79,1.86-4.74,5.44-5.82,10.71-1.09,5.29-1.63,13.83-1.63,25.63v92.25h-9.32c-.31-6.52-1.63-12.58-3.96-18.17-2.33-5.59-5.52-8.38-9.55-8.38-5.28,0-13.67,3.26-25.16,9.79-27.03,15.53-52.5,23.29-76.41,23.29-53.74,0-94.9-14.68-123.47-44.03-28.58-29.35-42.86-70.59-42.86-123.7,0-34.79,7.22-65.39,21.67-91.79,14.45-26.4,34.4-46.9,59.87-61.5,25.47-14.6,54.51-21.9,87.12-21.9,19.26,0,35.49,2.64,48.69,7.92Z"/>
</svg>